<?xml version="1.0" encoding="UTF-8"?>
<svg xmlns="http://www.w3.org/2000/svg" viewBox="0 0 332 304" width="332" height="304" role="img" aria-label="MAKE Innovation"><g transform="translate(46 -52)"><defs><clipPath id="grAdunkel-ma"><rect width="120" height="240"/></clipPath><clipPath id="grAdunkel-ke"><rect x="120" width="120" height="240"/></clipPath></defs><path clip-path="url(#grAdunkel-ma)" d="M48 184L48 64L120 136" fill="none" stroke="#D13A55" stroke-width="24" stroke-linecap="round" stroke-linejoin="round"/><path clip-path="url(#grAdunkel-ke)" d="M192 184L192 64L120 136" fill="none" stroke="#22B577" stroke-width="24" stroke-linecap="round" stroke-linejoin="round"/></g><g transform="translate(0 184)"><path d="M6 66L6 6L42 42L78 6L78 66M106 66L138 6L170 66M116 48L160 48M200 6L200 66M250 6L200 46M216 33.2L252 66M326 6L280 6L280 66L326 66M280 35L320 35" fill="none" stroke="#E8ECEA" stroke-width="12" stroke-linecap="round" stroke-linejoin="round"/><rect x="0" y="84" width="176" height="4" rx="2" fill="#D13A55"/><rect x="194" y="84" width="138" height="4" rx="2" fill="#22B577"/></g><g transform="translate(0 284)"><path d="M2 2L2 18M25.11 18L25.11 2L39.11 18L39.11 2M62.22 18L62.22 2L76.22 18L76.22 2M138.44 2L146.44 18L154.44 2M177.56 18L185.56 2L193.56 18M180.56 13L190.56 13M216.67 2L230.67 2M223.67 2L223.67 18M253.78 2L253.78 18M316 18L316 2L330 18L330 2" fill="none" stroke="#A2ADB0" stroke-width="4" stroke-linecap="round" stroke-linejoin="round"/><circle cx="107.33" cy="10" r="8.5" fill="none" stroke="#A2ADB0" stroke-width="4"/><circle cx="284.89" cy="10" r="8.5" fill="none" stroke="#A2ADB0" stroke-width="4"/></g></svg>
