<?xml version="1.0" encoding="UTF-8"?>
<svg xmlns="http://www.w3.org/2000/svg" viewBox="0 0 540 144" width="540" height="144" role="img" aria-label="MAKE Innovation"><g transform="translate(-36 -52)"><defs><clipPath id="quhellk-ma"><rect width="120" height="240"/></clipPath><clipPath id="quhellk-ke"><rect x="120" width="120" height="240"/></clipPath></defs><path clip-path="url(#quhellk-ma)" d="M48 184L48 64L120 136" fill="none" stroke="#B12E46" stroke-width="24" stroke-linecap="round" stroke-linejoin="round"/><path clip-path="url(#quhellk-ke)" d="M192 184L192 64L120 136" fill="none" stroke="#1A8F5E" stroke-width="24" stroke-linecap="round" stroke-linejoin="round"/><g><circle cx="120" cy="92" r="12" fill="#1A8F5E"/><path d="M120 80A12 12 0 0 1 120 104Z" fill="#B12E46"/></g></g><g transform="translate(208 22.5)"><path d="M6 66L6 6L42 42L78 6L78 66M106 66L138 6L170 66M116 48L160 48M200 6L200 66M250 6L200 46M216 33.2L252 66M326 6L280 6L280 66L326 66M280 35L320 35" fill="none" stroke="#0B0E10" stroke-width="12" stroke-linecap="round" stroke-linejoin="round"/><circle cx="6" cy="93" r="6" fill="#B12E46"/><circle cx="26" cy="93" r="6" fill="#1A8F5E"/></g></svg>
