<?xml version="1.0" encoding="UTF-8"?>
<svg xmlns="http://www.w3.org/2000/svg" viewBox="0 0 540 144" width="540" height="144" role="img" aria-label="MAKE Innovation"><g transform="translate(-36 -52)"><defs><clipPath id="quAdunkelk-ma"><rect width="120" height="240"/></clipPath><clipPath id="quAdunkelk-ke"><rect x="120" width="120" height="240"/></clipPath></defs><path clip-path="url(#quAdunkelk-ma)" d="M48 184L48 64L120 136" fill="none" stroke="#D13A55" stroke-width="24" stroke-linecap="round" stroke-linejoin="round"/><path clip-path="url(#quAdunkelk-ke)" d="M192 184L192 64L120 136" fill="none" stroke="#22B577" stroke-width="24" stroke-linecap="round" stroke-linejoin="round"/></g><g transform="translate(208 28)"><path d="M6 66L6 6L42 42L78 6L78 66M106 66L138 6L170 66M116 48L160 48M200 6L200 66M250 6L200 46M216 33.2L252 66M326 6L280 6L280 66L326 66M280 35L320 35" fill="none" stroke="#E8ECEA" stroke-width="12" stroke-linecap="round" stroke-linejoin="round"/><rect x="0" y="84" width="176" height="4" rx="2" fill="#D13A55"/><rect x="194" y="84" width="138" height="4" rx="2" fill="#22B577"/></g></svg>
