<svg xmlns="http://www.w3.org/2000/svg" viewBox="0 0 800 800" width="800" height="800"><defs><filter id="schein" x="-50%" y="-50%" width="200%" height="200%"><feGaussianBlur stdDeviation="4"/></filter></defs><g fill="none" stroke-width=".8"><path d="M242.7 400.6L242.2 378.3M500.9 438.7L503.7 416.1M288.1 498L288.1 473.9M584.5 544.8L588.9 520.5M242 369L243.7 370.2L245.3 371.4L247 372.7L248.7 374.1L250.5 375.7L252.2 377.5L254 379.6L255.8 382L257.7 384.6L259.5 387.6L261.4 390.9L263.4 394.6M257.6 397.6L251.8 400.8L246 404.5L240.2 408.4L234.2 412.7L228.3 417.3L222.3 422.1L216.3 427.2L210.3 432.4L204.2 437.9L198 443.4L191.9 449M415.5 393.9L418.3 395.2L421.1 396.6L424 398.1L426.9 399.8L429.9 401.6L432.8 403.6L435.8 405.9L438.8 408.5L441.8 411.3L444.8 414.5L447.8 418.1L450.9 422M504.9 406.7L508.3 408.2L511.8 409.7L515.3 411.3L518.9 413L522.5 414.9L526.1 417.1L529.7 419.5L533.3 422.1L536.9 425.1L540.5 428.5L544.2 432.2L547.8 436.2M543.2 439.4L538.5 443L533.7 446.9L528.9 451.2L523.9 455.8L518.9 460.7L513.8 465.9L508.7 471.3L503.5 476.9L498.2 482.7L492.9 488.6L487.5 494.5M139.4 394.9L147.4 391.9L155.3 389L163.3 386.1L171.2 383.4L179.2 380.8L187.2 378.4L195.1 376.2L203.1 374.3L211.1 372.7L219 371.4L227 370.4L234.9 369.7M637.6 474.8L633.7 476.7L629.7 479L625.6 481.6L621.4 484.5L617.2 487.6L612.9 491L608.5 494.6L604.1 498.4L599.7 502.4L595.3 506.4L590.8 510.4" stroke="#c9455c" stroke-opacity="0.13"/><path d="M327.1 413.1L327.6 390.6M590.6 451.9L594.6 429.2M384.6 513.2L386.1 489.1M142 427.6L140.2 404.5M263.4 394.6L265.3 398.7L267.3 403.1L269.3 407.9L271.3 413L273.3 418.5L275.4 424.3L277.5 430.4L279.6 436.7L281.7 443.3L283.8 450L286 456.9L288.1 463.9M327.8 381.3L322.8 381.5L317.7 381.8L312.5 382.1L307.3 382.5L302 383.1L296.7 384L291.2 385L285.8 386.3L280.3 387.9L274.7 389.8L269 392.1L263.4 394.6L257.6 397.6M450.9 422L453.9 426.3L456.9 431L460 436.1L463 441.5L466 447.2L469.1 453.3L472.1 459.6L475.2 466.2L478.2 473.1L481.3 480.1L484.4 487.3L487.5 494.5M547.8 436.2L551.4 440.6L555 445.4L558.6 450.6L562.2 456.2L565.8 462L569.3 468.2L572.9 474.7L576.4 481.5L580 488.5L583.6 495.7L587.2 503L590.8 510.4M596.2 419.8L592.6 420.3L588.9 420.7L585.1 421.3L581.3 422L577.4 422.8L573.4 423.9L569.4 425.2L565.3 426.8L561 428.6L556.7 430.8L552.3 433.3L547.8 436.2L543.2 439.4M234.9 369.7L242.9 369.3L250.8 369.2L258.6 369.5L266.5 370L274.3 370.8L282.1 371.8L289.8 373.1L297.5 374.5L305.2 376.1L312.8 377.8L320.3 379.5L327.8 381.3M681.7 475.4L678.7 474.3L675.6 473.3L672.5 472.3L669.4 471.5L666.1 470.8L662.9 470.3L659.5 470.1L656.1 470.1L652.6 470.4L649 471L645.3 471.9L641.5 473.2L637.6 474.8" stroke="#2ea878" stroke-opacity="0.13"/><path d="M413.1 425.7L414.8 403.2M193.7 483L192.4 459M483.4 528.8L486.3 504.6M674 508.6L679.4 485.1" stroke="#6b7880" stroke-opacity="0.13"/><path d="M187.3 403.2L642.1 470.8L642.5 530.3L152.8 454.2L187.3 403.2" stroke="#ccdbe6" stroke-opacity="0.25"/></g><g filter="url(#schein)" stroke-linecap="round" fill="none"><path d="M241 374.2h0" stroke="#c9455c" stroke-opacity=".5" stroke-width="5.4"/><path d="M242.1 369.4h0" stroke="#c9455c" stroke-opacity=".5" stroke-width="7.8"/><path d="M239.3 373.6h0" stroke="#c9455c" stroke-opacity=".5" stroke-width="5.2"/><path d="M244.8 371h0" stroke="#c9455c" stroke-opacity=".5" stroke-width="10.1"/><path d="M242 372h0" stroke="#c9455c" stroke-opacity=".5" stroke-width="5.3"/><path d="M242.2 370h0" stroke="#c9455c" stroke-opacity=".5" stroke-width="5.8"/><path d="M241 371.4h0" stroke="#c9455c" stroke-opacity=".5" stroke-width="6.7"/><path d="M242.8 373.1h0" stroke="#c9455c" stroke-opacity=".5" stroke-width="10.8"/><path d="M243.3 374.2h0" stroke="#c9455c" stroke-opacity=".5" stroke-width="5.6"/><path d="M242.3 374.4h0" stroke="#c9455c" stroke-opacity=".5" stroke-width="5.7"/><path d="M244.5 372.2h0" stroke="#c9455c" stroke-opacity=".5" stroke-width="5.9"/><path d="M241.8 372.2h0" stroke="#c9455c" stroke-opacity=".5" stroke-width="8.7"/><path d="M242.4 373.6h0" stroke="#c9455c" stroke-opacity=".5" stroke-width="5.6"/><path d="M242.5 372.6h0" stroke="#c9455c" stroke-opacity=".5" stroke-width="7.4"/><path d="M242.1 370.5h0" stroke="#c9455c" stroke-opacity=".5" stroke-width="5.5"/><path d="M242.1 372h0" stroke="#c9455c" stroke-opacity=".5" stroke-width="9.4"/><path d="M329.1 386.4h0" stroke="#2ea878" stroke-opacity=".5" stroke-width="12.8"/><path d="M325.4 385.4h0" stroke="#2ea878" stroke-opacity=".5" stroke-width="5.9"/><path d="M328.6 384.7h0" stroke="#2ea878" stroke-opacity=".5" stroke-width="10.8"/><path d="M329.2 385.4h0" stroke="#2ea878" stroke-opacity=".5" stroke-width="7.6"/><path d="M327.3 387.4h0" stroke="#2ea878" stroke-opacity=".5" stroke-width="8.3"/><path d="M326.9 384.7h0" stroke="#2ea878" stroke-opacity=".5" stroke-width="8.9"/><path d="M325.1 382.7h0" stroke="#2ea878" stroke-opacity=".5" stroke-width="10.1"/><path d="M325.4 385.6h0" stroke="#2ea878" stroke-opacity=".5" stroke-width="9.6"/><path d="M328.2 383.1h0" stroke="#2ea878" stroke-opacity=".5" stroke-width="8.2"/><path d="M329 382.4h0" stroke="#2ea878" stroke-opacity=".5" stroke-width="7.3"/><path d="M328.2 386.3h0" stroke="#2ea878" stroke-opacity=".5" stroke-width="10.1"/><path d="M327.4 382.7h0" stroke="#2ea878" stroke-opacity=".5" stroke-width="5.5"/><path d="M327.2 383.7h0" stroke="#2ea878" stroke-opacity=".5" stroke-width="12.3"/><path d="M326.7 382.7h0" stroke="#2ea878" stroke-opacity=".5" stroke-width="7.3"/><path d="M329.2 383.1h0" stroke="#2ea878" stroke-opacity=".5" stroke-width="6.9"/><path d="M327 383.3h0" stroke="#2ea878" stroke-opacity=".5" stroke-width="10.4"/><path d="M415 395.9h0" stroke="#ffffff" stroke-opacity=".5" stroke-width="7"/><path d="M415.6 398h0" stroke="#ffffff" stroke-opacity=".5" stroke-width="5.4"/><path d="M416.3 399.1h0" stroke="#ffffff" stroke-opacity=".5" stroke-width="6.5"/><path d="M416.7 396.4h0" stroke="#ffffff" stroke-opacity=".5" stroke-width="6.4"/><path d="M415.8 397.2h0" stroke="#ffffff" stroke-opacity=".5" stroke-width="6"/><path d="M414.4 398.7h0" stroke="#ffffff" stroke-opacity=".5" stroke-width="5.4"/><path d="M414.9 396.6h0" stroke="#ffffff" stroke-opacity=".5" stroke-width="7.7"/><path d="M413.4 398h0" stroke="#ffffff" stroke-opacity=".5" stroke-width="6.8"/><path d="M418.2 397.8h0" stroke="#ffffff" stroke-opacity=".5" stroke-width="5.7"/><path d="M417 397.7h0" stroke="#ffffff" stroke-opacity=".5" stroke-width="7.2"/><path d="M417.2 394.4h0" stroke="#ffffff" stroke-opacity=".5" stroke-width="7.3"/><path d="M414.9 399.2h0" stroke="#ffffff" stroke-opacity=".5" stroke-width="7.6"/><path d="M414 396.2h0" stroke="#ffffff" stroke-opacity=".5" stroke-width="7.3"/><path d="M414.6 398.6h0" stroke="#ffffff" stroke-opacity=".5" stroke-width="5.6"/><path d="M414.2 398.6h0" stroke="#ffffff" stroke-opacity=".5" stroke-width="7.2"/><path d="M416.8 399.5h0" stroke="#ffffff" stroke-opacity=".5" stroke-width="6.5"/><path d="M503.1 409.3h0" stroke="#c9455c" stroke-opacity=".5" stroke-width="8.1"/><path d="M501.7 409.5h0" stroke="#c9455c" stroke-opacity=".5" stroke-width="9.6"/><path d="M505.1 408.6h0" stroke="#c9455c" stroke-opacity=".5" stroke-width="6.8"/><path d="M506.4 410.3h0" stroke="#c9455c" stroke-opacity=".5" stroke-width="9"/><path d="M502.4 413.4h0" stroke="#c9455c" stroke-opacity=".5" stroke-width="6.9"/><path d="M502.9 408.5h0" stroke="#c9455c" stroke-opacity=".5" stroke-width="8.8"/><path d="M504.1 410.5h0" stroke="#c9455c" stroke-opacity=".5" stroke-width="10.1"/><path d="M504 407.6h0" stroke="#c9455c" stroke-opacity=".5" stroke-width="8.4"/><path d="M505.2 407.8h0" stroke="#c9455c" stroke-opacity=".5" stroke-width="7.2"/><path d="M504.2 409.1h0" stroke="#c9455c" stroke-opacity=".5" stroke-width="5.4"/><path d="M504.3 410.4h0" stroke="#c9455c" stroke-opacity=".5" stroke-width="7.3"/><path d="M503 410.5h0" stroke="#c9455c" stroke-opacity=".5" stroke-width="6.9"/><path d="M505.5 412.4h0" stroke="#c9455c" stroke-opacity=".5" stroke-width="9.9"/><path d="M506 409h0" stroke="#c9455c" stroke-opacity=".5" stroke-width="5.8"/><path d="M505.3 410.5h0" stroke="#c9455c" stroke-opacity=".5" stroke-width="5.5"/><path d="M506.7 410h0" stroke="#c9455c" stroke-opacity=".5" stroke-width="11.4"/><path d="M595.2 421.5h0" stroke="#2ea878" stroke-opacity=".5" stroke-width="10.5"/><path d="M595.7 423.4h0" stroke="#2ea878" stroke-opacity=".5" stroke-width="13.1"/><path d="M597.7 423.6h0" stroke="#2ea878" stroke-opacity=".5" stroke-width="5.4"/><path d="M594.7 423.5h0" stroke="#2ea878" stroke-opacity=".5" stroke-width="6.3"/><path d="M595.2 425.4h0" stroke="#2ea878" stroke-opacity=".5" stroke-width="7.9"/><path d="M594.2 423.2h0" stroke="#2ea878" stroke-opacity=".5" stroke-width="9"/><path d="M596.9 424.8h0" stroke="#2ea878" stroke-opacity=".5" stroke-width="8.8"/><path d="M597.3 423.5h0" stroke="#2ea878" stroke-opacity=".5" stroke-width="5.8"/><path d="M597.1 423.6h0" stroke="#2ea878" stroke-opacity=".5" stroke-width="9.7"/><path d="M596.5 424.8h0" stroke="#2ea878" stroke-opacity=".5" stroke-width="8.8"/><path d="M594.3 421.8h0" stroke="#2ea878" stroke-opacity=".5" stroke-width="5.4"/><path d="M595.3 424.6h0" stroke="#2ea878" stroke-opacity=".5" stroke-width="6.2"/><path d="M594.6 422.6h0" stroke="#2ea878" stroke-opacity=".5" stroke-width="8.4"/><path d="M595.2 423.5h0" stroke="#2ea878" stroke-opacity=".5" stroke-width="5.9"/><path d="M594.4 421.7h0" stroke="#2ea878" stroke-opacity=".5" stroke-width="8.9"/><path d="M593.9 421.5h0" stroke="#2ea878" stroke-opacity=".5" stroke-width="11.9"/><path d="M191.3 453.2h0" stroke="#ffffff" stroke-opacity=".5" stroke-width="9.4"/><path d="M187.7 454.4h0" stroke="#ffffff" stroke-opacity=".5" stroke-width="8.7"/><path d="M191.6 451.3h0" stroke="#ffffff" stroke-opacity=".5" stroke-width="6.5"/><path d="M193.8 454.2h0" stroke="#ffffff" stroke-opacity=".5" stroke-width="6.5"/><path d="M195 453.5h0" stroke="#ffffff" stroke-opacity=".5" stroke-width="6.1"/><path d="M190.4 453.1h0" stroke="#ffffff" stroke-opacity=".5" stroke-width="5.9"/><path d="M191.5 452.8h0" stroke="#ffffff" stroke-opacity=".5" stroke-width="9.9"/><path d="M188.3 453.4h0" stroke="#ffffff" stroke-opacity=".5" stroke-width="6.2"/><path d="M192.7 451.7h0" stroke="#ffffff" stroke-opacity=".5" stroke-width="12.1"/><path d="M191.1 452h0" stroke="#ffffff" stroke-opacity=".5" stroke-width="7.8"/><path d="M188 454.2h0" stroke="#ffffff" stroke-opacity=".5" stroke-width="7.2"/><path d="M188.5 452.6h0" stroke="#ffffff" stroke-opacity=".5" stroke-width="6.9"/><path d="M191.4 452.7h0" stroke="#ffffff" stroke-opacity=".5" stroke-width="6.8"/><path d="M190.7 454.9h0" stroke="#ffffff" stroke-opacity=".5" stroke-width="9"/><path d="M194.6 454.8h0" stroke="#ffffff" stroke-opacity=".5" stroke-width="6.1"/><path d="M191.4 453.7h0" stroke="#ffffff" stroke-opacity=".5" stroke-width="7.5"/><path d="M287.2 465.6h0" stroke="#c9455c" stroke-opacity=".5" stroke-width="6.2"/><path d="M287.3 466.7h0" stroke="#c9455c" stroke-opacity=".5" stroke-width="8.1"/><path d="M287.7 468.4h0" stroke="#c9455c" stroke-opacity=".5" stroke-width="8.5"/><path d="M286.9 466.9h0" stroke="#c9455c" stroke-opacity=".5" stroke-width="6.3"/><path d="M287.3 469.4h0" stroke="#c9455c" stroke-opacity=".5" stroke-width="5.9"/><path d="M290.3 468.6h0" stroke="#c9455c" stroke-opacity=".5" stroke-width="8"/><path d="M285.8 466.6h0" stroke="#c9455c" stroke-opacity=".5" stroke-width="10.2"/><path d="M287.4 471.8h0" stroke="#c9455c" stroke-opacity=".5" stroke-width="9.7"/><path d="M288.9 466.9h0" stroke="#c9455c" stroke-opacity=".5" stroke-width="6"/><path d="M288.1 466h0" stroke="#c9455c" stroke-opacity=".5" stroke-width="6.3"/><path d="M287.4 469.7h0" stroke="#c9455c" stroke-opacity=".5" stroke-width="12.9"/><path d="M287.6 465.3h0" stroke="#c9455c" stroke-opacity=".5" stroke-width="8.2"/><path d="M286.8 470.6h0" stroke="#c9455c" stroke-opacity=".5" stroke-width="6.7"/><path d="M291 468.8h0" stroke="#c9455c" stroke-opacity=".5" stroke-width="6.3"/><path d="M290.4 467.7h0" stroke="#c9455c" stroke-opacity=".5" stroke-width="6.3"/><path d="M288.1 464.4h0" stroke="#c9455c" stroke-opacity=".5" stroke-width="7.1"/><path d="M387.8 481.5h0" stroke="#2ea878" stroke-opacity=".5" stroke-width="6.1"/><path d="M385.5 483.7h0" stroke="#2ea878" stroke-opacity=".5" stroke-width="7.5"/><path d="M385.9 485.3h0" stroke="#2ea878" stroke-opacity=".5" stroke-width="6.3"/><path d="M387.3 483.7h0" stroke="#2ea878" stroke-opacity=".5" stroke-width="6.2"/><path d="M387 480.4h0" stroke="#2ea878" stroke-opacity=".5" stroke-width="8"/><path d="M384.1 483.2h0" stroke="#2ea878" stroke-opacity=".5" stroke-width="10.1"/><path d="M384.7 483.9h0" stroke="#2ea878" stroke-opacity=".5" stroke-width="7.2"/><path d="M385.3 485.5h0" stroke="#2ea878" stroke-opacity=".5" stroke-width="8.5"/><path d="M389.3 480.7h0" stroke="#2ea878" stroke-opacity=".5" stroke-width="13.4"/><path d="M386.2 483.3h0" stroke="#2ea878" stroke-opacity=".5" stroke-width="6.5"/><path d="M385.1 483.3h0" stroke="#2ea878" stroke-opacity=".5" stroke-width="6.6"/><path d="M386.5 482.1h0" stroke="#2ea878" stroke-opacity=".5" stroke-width="6.6"/><path d="M388.3 483h0" stroke="#2ea878" stroke-opacity=".5" stroke-width="7.4"/><path d="M385.4 481.3h0" stroke="#2ea878" stroke-opacity=".5" stroke-width="6.1"/><path d="M385.9 482.6h0" stroke="#2ea878" stroke-opacity=".5" stroke-width="6.5"/><path d="M387.9 480.7h0" stroke="#2ea878" stroke-opacity=".5" stroke-width="7"/><path d="M484.8 500.1h0" stroke="#ffffff" stroke-opacity=".5" stroke-width="9.3"/><path d="M488 497.6h0" stroke="#ffffff" stroke-opacity=".5" stroke-width="10"/><path d="M485.5 500.2h0" stroke="#ffffff" stroke-opacity=".5" stroke-width="9.3"/><path d="M490.4 497.4h0" stroke="#ffffff" stroke-opacity=".5" stroke-width="10.6"/><path d="M490.1 497.2h0" stroke="#ffffff" stroke-opacity=".5" stroke-width="8.4"/><path d="M485.1 497h0" stroke="#ffffff" stroke-opacity=".5" stroke-width="6.2"/><path d="M487.2 497.9h0" stroke="#ffffff" stroke-opacity=".5" stroke-width="9.3"/><path d="M489.8 499.8h0" stroke="#ffffff" stroke-opacity=".5" stroke-width="6.3"/><path d="M489.3 499.9h0" stroke="#ffffff" stroke-opacity=".5" stroke-width="14.4"/><path d="M486.5 498h0" stroke="#ffffff" stroke-opacity=".5" stroke-width="10.5"/><path d="M489.6 499.7h0" stroke="#ffffff" stroke-opacity=".5" stroke-width="6.1"/><path d="M488.5 497.6h0" stroke="#ffffff" stroke-opacity=".5" stroke-width="6.5"/><path d="M486 499.7h0" stroke="#ffffff" stroke-opacity=".5" stroke-width="9.4"/><path d="M486 498.2h0" stroke="#ffffff" stroke-opacity=".5" stroke-width="10.6"/><path d="M485 496.3h0" stroke="#ffffff" stroke-opacity=".5" stroke-width="11.7"/><path d="M486.8 500.2h0" stroke="#ffffff" stroke-opacity=".5" stroke-width="6.7"/><path d="M588 516.3h0" stroke="#c9455c" stroke-opacity=".5" stroke-width="12.1"/><path d="M587.5 514.1h0" stroke="#c9455c" stroke-opacity=".5" stroke-width="6.1"/><path d="M589.2 513h0" stroke="#c9455c" stroke-opacity=".5" stroke-width="8.7"/><path d="M590.5 514.1h0" stroke="#c9455c" stroke-opacity=".5" stroke-width="13.1"/><path d="M590.3 513.2h0" stroke="#c9455c" stroke-opacity=".5" stroke-width="8.4"/><path d="M590.7 511.5h0" stroke="#c9455c" stroke-opacity=".5" stroke-width="7.1"/><path d="M590.5 513.5h0" stroke="#c9455c" stroke-opacity=".5" stroke-width="6.7"/><path d="M587.5 512.9h0" stroke="#c9455c" stroke-opacity=".5" stroke-width="7.6"/><path d="M592 514.4h0" stroke="#c9455c" stroke-opacity=".5" stroke-width="6.8"/><path d="M589.1 512.9h0" stroke="#c9455c" stroke-opacity=".5" stroke-width="8.2"/><path d="M590 512.6h0" stroke="#c9455c" stroke-opacity=".5" stroke-width="6.5"/><path d="M589.8 513.7h0" stroke="#c9455c" stroke-opacity=".5" stroke-width="7.8"/><path d="M589.9 510.8h0" stroke="#c9455c" stroke-opacity=".5" stroke-width="7.1"/><path d="M585.7 514.3h0" stroke="#c9455c" stroke-opacity=".5" stroke-width="7.3"/><path d="M587 514.3h0" stroke="#c9455c" stroke-opacity=".5" stroke-width="6.2"/><path d="M588.7 515.1h0" stroke="#c9455c" stroke-opacity=".5" stroke-width="6.8"/><path d="M138.8 399.2h0" stroke="#2ea878" stroke-opacity=".5" stroke-width="5.7"/><path d="M140.2 398.5h0" stroke="#2ea878" stroke-opacity=".5" stroke-width="5.4"/><path d="M140.7 396.2h0" stroke="#2ea878" stroke-opacity=".5" stroke-width="6.3"/><path d="M140.3 399.3h0" stroke="#2ea878" stroke-opacity=".5" stroke-width="8.8"/><path d="M142.4 397.6h0" stroke="#2ea878" stroke-opacity=".5" stroke-width="6.1"/><path d="M140.9 397.4h0" stroke="#2ea878" stroke-opacity=".5" stroke-width="5.9"/><path d="M144.5 396.3h0" stroke="#2ea878" stroke-opacity=".5" stroke-width="5.9"/><path d="M139.7 401.7h0" stroke="#2ea878" stroke-opacity=".5" stroke-width="9.8"/><path d="M138.6 399.2h0" stroke="#2ea878" stroke-opacity=".5" stroke-width="8.4"/><path d="M140.1 395.8h0" stroke="#2ea878" stroke-opacity=".5" stroke-width="6"/><path d="M138.5 398.8h0" stroke="#2ea878" stroke-opacity=".5" stroke-width="7"/><path d="M140.4 400h0" stroke="#2ea878" stroke-opacity=".5" stroke-width="6.3"/><path d="M138.2 398.1h0" stroke="#2ea878" stroke-opacity=".5" stroke-width="7"/><path d="M138.5 396.6h0" stroke="#2ea878" stroke-opacity=".5" stroke-width="6.9"/><path d="M140 398.7h0" stroke="#2ea878" stroke-opacity=".5" stroke-width="7.6"/><path d="M140.8 398.5h0" stroke="#2ea878" stroke-opacity=".5" stroke-width="8.4"/><path d="M682.8 479.3h0" stroke="#ffffff" stroke-opacity=".5" stroke-width="9.9"/><path d="M681.7 477.3h0" stroke="#ffffff" stroke-opacity=".5" stroke-width="8.4"/><path d="M682.4 481.8h0" stroke="#ffffff" stroke-opacity=".5" stroke-width="6"/><path d="M679.5 476.4h0" stroke="#ffffff" stroke-opacity=".5" stroke-width="7.1"/><path d="M680.2 477.8h0" stroke="#ffffff" stroke-opacity=".5" stroke-width="5.7"/><path d="M682.1 481.4h0" stroke="#ffffff" stroke-opacity=".5" stroke-width="5.9"/><path d="M681.6 477h0" stroke="#ffffff" stroke-opacity=".5" stroke-width="10.1"/><path d="M682.1 479.1h0" stroke="#ffffff" stroke-opacity=".5" stroke-width="9"/><path d="M677 478.5h0" stroke="#ffffff" stroke-opacity=".5" stroke-width="10.2"/><path d="M681.8 480.1h0" stroke="#ffffff" stroke-opacity=".5" stroke-width="5.8"/><path d="M680.2 478.5h0" stroke="#ffffff" stroke-opacity=".5" stroke-width="5.7"/><path d="M680.6 481.2h0" stroke="#ffffff" stroke-opacity=".5" stroke-width="8.9"/><path d="M682.3 480.8h0" stroke="#ffffff" stroke-opacity=".5" stroke-width="9.6"/><path d="M683.2 477.3h0" stroke="#ffffff" stroke-opacity=".5" stroke-width="7"/><path d="M682.3 479.2h0" stroke="#ffffff" stroke-opacity=".5" stroke-width="8.1"/><path d="M680.6 478.6h0" stroke="#ffffff" stroke-opacity=".5" stroke-width="10.2"/><path d="M264.7 436.2h0" stroke="#ffffff" stroke-opacity=".5" stroke-width="9.7"/><path d="M262.2 436.5h0" stroke="#ffffff" stroke-opacity=".5" stroke-width="6.5"/><path d="M263.5 437.1h0" stroke="#ffffff" stroke-opacity=".5" stroke-width="12.9"/><path d="M261.4 432.4h0" stroke="#ffffff" stroke-opacity=".5" stroke-width="5.7"/><path d="M262.3 436.3h0" stroke="#ffffff" stroke-opacity=".5" stroke-width="5.6"/><path d="M262.7 435h0" stroke="#ffffff" stroke-opacity=".5" stroke-width="7.4"/><path d="M263.7 436.8h0" stroke="#ffffff" stroke-opacity=".5" stroke-width="6"/><path d="M265.1 436.2h0" stroke="#ffffff" stroke-opacity=".5" stroke-width="5.6"/><path d="M262.7 434.1h0" stroke="#ffffff" stroke-opacity=".5" stroke-width="9.7"/><path d="M264.3 434.2h0" stroke="#ffffff" stroke-opacity=".5" stroke-width="5.5"/><path d="M263.5 435.1h0" stroke="#ffffff" stroke-opacity=".5" stroke-width="6.5"/><path d="M261.9 435.8h0" stroke="#ffffff" stroke-opacity=".5" stroke-width="13.8"/><path d="M263.9 436.1h0" stroke="#ffffff" stroke-opacity=".5" stroke-width="7.6"/><path d="M355.8 448.7h0" stroke="#ffffff" stroke-opacity=".5" stroke-width="9"/><path d="M356 448.4h0" stroke="#ffffff" stroke-opacity=".5" stroke-width="7.9"/><path d="M354.9 449h0" stroke="#ffffff" stroke-opacity=".5" stroke-width="8.8"/><path d="M355.1 448.2h0" stroke="#ffffff" stroke-opacity=".5" stroke-width="8.2"/><path d="M353.4 448.4h0" stroke="#ffffff" stroke-opacity=".5" stroke-width="6.3"/><path d="M355.3 449.2h0" stroke="#ffffff" stroke-opacity=".5" stroke-width="6.9"/><path d="M355.2 447.9h0" stroke="#ffffff" stroke-opacity=".5" stroke-width="11.5"/><path d="M354.8 447.2h0" stroke="#ffffff" stroke-opacity=".5" stroke-width="6.8"/><path d="M354.4 450.8h0" stroke="#ffffff" stroke-opacity=".5" stroke-width="6.1"/><path d="M353.9 448.1h0" stroke="#ffffff" stroke-opacity=".5" stroke-width="5.7"/><path d="M353.8 448h0" stroke="#ffffff" stroke-opacity=".5" stroke-width="5.9"/><path d="M355.6 449.3h0" stroke="#ffffff" stroke-opacity=".5" stroke-width="5.6"/><path d="M353.8 448.3h0" stroke="#ffffff" stroke-opacity=".5" stroke-width="6.1"/><path d="M445.6 464.9h0" stroke="#ffffff" stroke-opacity=".5" stroke-width="7.2"/><path d="M447.5 464.5h0" stroke="#ffffff" stroke-opacity=".5" stroke-width="7"/><path d="M447.4 461.9h0" stroke="#ffffff" stroke-opacity=".5" stroke-width="9.4"/><path d="M448.5 464.6h0" stroke="#ffffff" stroke-opacity=".5" stroke-width="7.7"/><path d="M444.8 462.4h0" stroke="#ffffff" stroke-opacity=".5" stroke-width="9.1"/><path d="M447.5 463.6h0" stroke="#ffffff" stroke-opacity=".5" stroke-width="7.4"/><path d="M446.2 462.6h0" stroke="#ffffff" stroke-opacity=".5" stroke-width="6.6"/><path d="M445.9 463.8h0" stroke="#ffffff" stroke-opacity=".5" stroke-width="6.4"/><path d="M448.7 463.8h0" stroke="#ffffff" stroke-opacity=".5" stroke-width="11.7"/><path d="M445.5 463.2h0" stroke="#ffffff" stroke-opacity=".5" stroke-width="7.4"/><path d="M446.5 461.2h0" stroke="#ffffff" stroke-opacity=".5" stroke-width="8"/><path d="M446.9 462.3h0" stroke="#ffffff" stroke-opacity=".5" stroke-width="5.8"/><path d="M447 464.2h0" stroke="#ffffff" stroke-opacity=".5" stroke-width="12.2"/><path d="M538.6 477.3h0" stroke="#ffffff" stroke-opacity=".5" stroke-width="8.1"/><path d="M538.1 476.9h0" stroke="#ffffff" stroke-opacity=".5" stroke-width="8.9"/><path d="M541.9 477.7h0" stroke="#ffffff" stroke-opacity=".5" stroke-width="7.6"/><path d="M542.6 476.6h0" stroke="#ffffff" stroke-opacity=".5" stroke-width="9.5"/><path d="M541.4 478.4h0" stroke="#ffffff" stroke-opacity=".5" stroke-width="6.5"/><path d="M541.4 479.1h0" stroke="#ffffff" stroke-opacity=".5" stroke-width="12.3"/><path d="M541.7 476.2h0" stroke="#ffffff" stroke-opacity=".5" stroke-width="14.3"/><path d="M541.2 477.4h0" stroke="#ffffff" stroke-opacity=".5" stroke-width="6.6"/><path d="M539.2 478.3h0" stroke="#ffffff" stroke-opacity=".5" stroke-width="6.1"/><path d="M541.4 477.8h0" stroke="#ffffff" stroke-opacity=".5" stroke-width="6"/><path d="M539.8 477.4h0" stroke="#ffffff" stroke-opacity=".5" stroke-width="5.8"/><path d="M543.5 478h0" stroke="#ffffff" stroke-opacity=".5" stroke-width="6.6"/><path d="M542.7 479.3h0" stroke="#ffffff" stroke-opacity=".5" stroke-width="7.6"/></g><g stroke-linecap="round" fill="none"><path d="M241 374.2h0M242 372h0M243.3 374.2h0M504.2 409.1h0M288.9 466.9h0M291 468.8h0M587.5 514.1h0M592 514.4h0M590 512.6h0" stroke="#c9455c" stroke-opacity="0.88" stroke-width="3"/><path d="M242.1 369.4h0M242.5 372.6h0M506.4 410.3h0M505.2 407.8h0M287.3 466.7h0M290.3 468.6h0M287.6 465.3h0M587.5 512.9h0M589.8 513.7h0" stroke="#c9455c" stroke-opacity="0.63" stroke-width="4"/><path d="M239.3 373.6h0M244.5 372.2h0M506 409h0M505.3 410.5h0M290.4 467.7h0M590.5 513.5h0" stroke="#c9455c" stroke-opacity="0.63" stroke-width="3"/><path d="M244.8 371h0M505.5 412.4h0M285.8 466.6h0" stroke="#c9455c" stroke-opacity="0.88" stroke-width="5"/><path d="M242.2 370h0M241 371.4h0M242.3 374.4h0M242.4 373.6h0M242.1 370.5h0M502.4 413.4h0M503 410.5h0M287.2 465.6h0M286.9 466.9h0M287.3 469.4h0M288.1 466h0M286.8 470.6h0M587 514.3h0M588.7 515.1h0" stroke="#c9455c" stroke-opacity="0.75" stroke-width="3"/><path d="M242.8 373.1h0M242.1 372h0M504.1 410.5h0" stroke="#c9455c" stroke-opacity="0.63" stroke-width="5"/><path d="M241.8 372.2h0M504.3 410.4h0M287.7 468.4h0M590.7 511.5h0M589.1 512.9h0M589.9 510.8h0M585.7 514.3h0" stroke="#c9455c" stroke-opacity="0.88" stroke-width="4"/><path d="M250.1 373.5h0M244.4 365.9h0M239.5 365.2h0M244.7 379.5h0M511.9 406.9h0M508 403.6h0M498.1 404.9h0M506.2 417.4h0M295.6 464.1h0M291 460.5h0M285.3 459.7h0M295.5 473.2h0M594.5 507.1h0M588.4 506.2h0M583 508.3h0M580.3 512.6h0M585.7 521.1h0M597.2 519.9h0" stroke="#c9455c" stroke-opacity="0.13" stroke-width="4"/><path d="M248.5 369.1h0" stroke="#c9455c" stroke-opacity="0.13" stroke-width="6"/><path d="M235.5 367.2h0M234.1 371.2h0M235.7 375.7h0M513 411.4h0M502.7 402.8h0M497.1 413.4h0M510.8 415.4h0M280.7 461.8h0M279 466.1h0M290.9 475.3h0M599 510.8h0M591.8 522h0" stroke="#c9455c" stroke-opacity="0.13" stroke-width="3"/><path d="M239.8 378.8h0M248.7 377.5h0M496 408.9h0M501 416.6h0M297.3 468.9h0M280.7 470.9h0" stroke="#c9455c" stroke-opacity="0.13" stroke-width="5"/><path d="M329.1 386.4h0M327.2 383.7h0M593.9 421.5h0" stroke="#2ea878" stroke-opacity="0.88" stroke-width="6"/><path d="M325.4 385.4h0M329.2 383.1h0M386.2 483.3h0M386.5 482.1h0M385.4 481.3h0M385.9 482.6h0M140.2 398.5h0M140.7 396.2h0M144.5 396.3h0M140.4 400h0M138.5 396.6h0" stroke="#2ea878" stroke-opacity="0.88" stroke-width="3"/><path d="M328.6 384.7h0M327 383.3h0" stroke="#2ea878" stroke-opacity="0.63" stroke-width="5"/><path d="M329.2 385.4h0M596.5 424.8h0M594.4 421.7h0M387 480.4h0M384.7 483.9h0M140 398.7h0M140.8 398.5h0" stroke="#2ea878" stroke-opacity="0.75" stroke-width="4"/><path d="M327.3 387.4h0M326.9 384.7h0M328.2 383.1h0M329 382.4h0M326.7 382.7h0M385.3 485.5h0M388.3 483h0M387.9 480.7h0M140.3 399.3h0M138.6 399.2h0" stroke="#2ea878" stroke-opacity="0.63" stroke-width="4"/><path d="M325.1 382.7h0M595.2 421.5h0M597.1 423.6h0M139.7 401.7h0" stroke="#2ea878" stroke-opacity="0.88" stroke-width="5"/><path d="M325.4 385.6h0M328.2 386.3h0M384.1 483.2h0" stroke="#2ea878" stroke-opacity="0.75" stroke-width="5"/><path d="M327.4 382.7h0M594.7 423.5h0M597.3 423.5h0M595.2 423.5h0M385.9 485.3h0M385.1 483.3h0M138.8 399.2h0M140.9 397.4h0" stroke="#2ea878" stroke-opacity="0.63" stroke-width="3"/><path d="M335.9 385.9h0M334.5 381.4h0M325.1 391.2h0M604.3 424.5h0M587.9 426.5h0M597.1 430.5h0M395.8 484.1h0M394.3 479.3h0M384 474.8h0M388.9 490.5h0M146.1 395h0M141.7 391.7h0M133.3 401.8h0" stroke="#2ea878" stroke-opacity="0.13" stroke-width="4"/><path d="M330.5 378.2h0M321.2 379.5h0M319.6 383.5h0M321.1 388h0M330.1 391.9h0M334.3 389.9h0M603.4 420h0M591.7 429.7h0M379.1 476.9h0M377.1 481.2h0M378.6 486.1h0M383.1 489.6h0M393.8 488.4h0M148 399.6h0M136.5 390.9h0M131.4 397.2h0M137.7 405.1h0M142.8 405.8h0M146.7 403.8h0" stroke="#2ea878" stroke-opacity="0.13" stroke-width="3"/><path d="M325.4 377.5h0M599.6 416.7h0M389.8 475.7h0M132.6 393h0" stroke="#2ea878" stroke-opacity="0.13" stroke-width="5"/><path d="M415 395.9h0M415.6 398h0M415.8 397.2h0M418.2 397.8h0M416.8 399.5h0M191.6 451.3h0M190.4 453.1h0M188.3 453.4h0M194.6 454.8h0M489.8 499.8h0M488.5 497.6h0M486.8 500.2h0M682.4 481.8h0M680.2 477.8h0M682.1 481.4h0M354.8 447.2h0M354.4 450.8h0M447.5 464.5h0M446.2 462.6h0M541.2 477.4h0M539.2 478.3h0" stroke="#ffffff" stroke-opacity="0.75" stroke-width="3"/><path d="M416.3 399.1h0M416.7 396.4h0M414.6 398.6h0M195 453.5h0M188.5 452.6h0M485.1 497h0M681.8 480.1h0" stroke="#ffffff" stroke-opacity="0.63" stroke-width="3"/><path d="M414.4 398.7h0M413.4 398h0M193.8 454.2h0M191.4 452.7h0M489.6 499.7h0M680.2 478.5h0M262.2 436.5h0M261.4 432.4h0M262.3 436.3h0M263.7 436.8h0M265.1 436.2h0M263.5 435.1h0M355.3 449.2h0M353.9 448.1h0M353.8 448.3h0M445.9 463.8h0M446.9 462.3h0M541.4 478.4h0M539.8 477.4h0M543.5 478h0" stroke="#ffffff" stroke-opacity="0.88" stroke-width="3"/><path d="M414.9 396.6h0M417.2 394.4h0M191.4 453.7h0M681.7 477.3h0M262.7 435h0M263.9 436.1h0M447.5 463.6h0" stroke="#ffffff" stroke-opacity="0.75" stroke-width="4"/><path d="M417 397.7h0M414 396.2h0M191.1 452h0M682.3 479.2h0M356 448.4h0M355.1 448.2h0M445.6 464.9h0M448.5 464.6h0M445.5 463.2h0M538.6 477.3h0M538.1 476.9h0M542.7 479.3h0" stroke="#ffffff" stroke-opacity="0.88" stroke-width="4"/><path d="M414.9 399.2h0M414.2 398.6h0M187.7 454.4h0M188 454.2h0M490.1 497.2h0M679.5 476.4h0M680.6 481.2h0M683.2 477.3h0" stroke="#ffffff" stroke-opacity="0.63" stroke-width="4"/><path d="M423.6 398.5h0M422.3 394h0M418.3 390.8h0M406.9 396.1h0M201 454.1h0M184.5 447h0M185.1 456.1h0M189.7 459.6h0M496.7 499.7h0M491 491.2h0M689.6 475.6h0M679.6 471.3h0M671.5 477.5h0M682.1 486.5h0M190.2 444.4h0M592.3 490.6h0M565 465.7h0M587.4 484.4h0M404 435.7h0M206.7 432h0M495.1 504.4h0M486.2 490.6h0M365.8 476.2h0M185.1 435.5h0M315 474.6h0M284 473.5h0M478.5 460h0M585.6 513.5h0M448.1 442.9h0M425.3 442.6h0M222 464.6h0M403.8 464.6h0M461 447.3h0M300.9 443.7h0M344 428.2h0M245.5 432.4h0M613.5 518.1h0M403.5 451.3h0M402.4 450.7h0M373 448h0M401.4 445.4h0M465.1 485h0M472.4 445.8h0M321.8 446.2h0M173.5 443.5h0M405.2 479.5h0M550.9 473.3h0M535 455.6h0M224 410.5h0M625 478.2h0M226.4 458.3h0M629.5 520.6h0M542.2 483.6h0M602.1 484.9h0M596.8 514.9h0M359.3 434.2h0M231.8 461.8h0M487.2 472.4h0M468.3 502.6h0M494.4 486.9h0M554.8 478.8h0M483 480.7h0M338.9 445.1h0M380.4 459.2h0M531.7 469.9h0M361 441h0M513.9 489.5h0M395.1 446.4h0M637.3 488h0M214.5 425.1h0M288.7 445.9h0M234.1 448.4h0M552.6 498h0M192.4 453.5h0M376.6 462.9h0M315.7 432.2h0M596.2 517.3h0M327.1 448.9h0M264.2 428.4h0M449.1 443h0M262.2 424.2h0M609.5 490.9h0M310 422.2h0M632.8 489.7h0M298.5 467.3h0M229.9 444.6h0M601.5 465.6h0M234.9 426.6h0M363.3 478.2h0M330.8 438.2h0M492.6 490.5h0M624.6 513.2h0M279.6 433.2h0M241.2 448.2h0M251 430.9h0M265.2 429.7h0M265.2 433.5h0M264.3 429.8h0M238.1 444.8h0M340.2 465.4h0M339.4 460.3h0M342.1 458.9h0M340.8 449.4h0M380.7 453.4h0M443.2 457.7h0M446.4 459.4h0M449.1 479.9h0M430.2 476.9h0M423.2 463.9h0M464.2 478.7h0M516.2 481.9h0M529.8 471.1h0M546.1 496.8h0M564.7 483.4h0M565.7 490.3h0M569.7 486.8h0M517.3 474.8h0M547.4 497.4h0M536.3 490.8h0M514.1 631.4h0M344.5 527.1h0M277.1 475.6h0M597.3 536.4h0M390.1 595.7h0M554.8 586.6h0M455.3 530.2h0M537.2 553.2h0M396.9 465h0M431.9 593.5h0M576.1 621.3h0M559.6 573.7h0M423.2 501.9h0M285.1 426.3h0M452.8 585.5h0M446.5 607.9h0M493.5 632h0M364.7 563.7h0M227.1 541h0M395.1 571.3h0M213.1 524.9h0M424.4 493.1h0M609.6 533.5h0M144.6 515.6h0M508.1 471.6h0M562 608.9h0M335.5 581.9h0M412.4 552.8h0M412.8 626.9h0M351.1 440.2h0M592.4 528.6h0M289 421.1h0M409.1 507.4h0M650.3 528.8h0M103.6 491.9h0M431.2 484.3h0M611.3 496.6h0M470.6 480h0M542.5 519.6h0M421.2 619.8h0M619.7 501.6h0M460.2 488.3h0M515.8 487.2h0M513.9 557.6h0M598.6 582.6h0M122.8 473.8h0M487.6 549h0M583.5 591.8h0M575.6 586.4h0M222.8 524.1h0M484.5 621.5h0M402.1 523.1h0M360.6 452.1h0M243.6 549.7h0M459.8 490.8h0M227 487.1h0M195.8 480h0M669.5 599.6h0M371.9 449h0M158.6 454h0M414.5 462.8h0M501.8 597h0M390.4 461.2h0M625.1 549.2h0M351.3 515.7h0M453 444h0M696.8 573h0M631.7 584.4h0M324.2 469h0M351.7 558.3h0M455.1 495.8h0M222.9 449.9h0M169.7 478.1h0M529.4 469.7h0M412.6 557.7h0M509.6 624.5h0M537.3 535.8h0M648.7 599.7h0M279.2 573.5h0M141.8 464h0M605.8 563.5h0M589.1 567.8h0M313.6 554.9h0M125 485.1h0M496.8 499.4h0M307.7 576.1h0M323.5 544.4h0M336.1 573.3h0M364.5 459.8h0M203.4 510.6h0M459 556.6h0M464.5 605.2h0M159 525.5h0M236 555.3h0M535 618.2h0M209.3 551.1h0M210.7 431.8h0M599.3 499.4h0M402.5 586h0M260.5 439.9h0M377.3 543.6h0M428.2 529.4h0M127.1 505.4h0M425.5 445.3h0M160.5 492h0M332.9 613h0M441.3 460.3h0M498.1 545.8h0M353.2 613.7h0M440.9 575.1h0M218.2 429.4h0M441.1 595.4h0M222.3 471.7h0M265.1 462.6h0M198.9 543.7h0M581.8 522.7h0M155.3 474.2h0" stroke="#ccdbe6" stroke-opacity="0.13" stroke-width="4"/><path d="M413.1 390h0M194.5 445.7h0M199.5 458.3h0M477.5 496.7h0M494.3 504h0M331.1 425.9h0M576.6 507h0M425.1 457.1h0M329.5 450.2h0M179.3 416.2h0M398.4 485.3h0M545.1 504.6h0M500.3 472.5h0M259.9 420.8h0M584.9 508.3h0M294.7 429.2h0M196.9 408.7h0M342.6 448.8h0M388.6 440.3h0M493.8 451.6h0M400.1 469.1h0M203.9 441.3h0M392 488.4h0M177.3 439.3h0M259.9 431h0M289.7 442.7h0M288.3 445.8h0M351 442.8h0M348.8 443.6h0M330.2 456.8h0M330.1 455h0M446.1 462.1h0M515.5 487.6h0M519.5 477.8h0M376.3 465.2h0M460 612.6h0M451.5 518.3h0M296.4 485.5h0M409.8 587.9h0M340 520.4h0M251.2 479.9h0M434.3 489.4h0M384.8 438.2h0M409.2 608.5h0M157.2 458.8h0M416.4 515.4h0M543 539.5h0M415.5 595h0M619.3 565.8h0M355.9 540.4h0M416.5 579.9h0M465.1 438.4h0M284.2 605.8h0M330.1 546.9h0M386.1 491.6h0M440.7 500.2h0M407.7 534.7h0M125.3 479.3h0M617.3 610.2h0M485.6 591.8h0M489.2 491.4h0M330.9 547h0M483.3 458.5h0M562.6 493.9h0M454.7 470h0M342.6 529.5h0" stroke="#ccdbe6" stroke-opacity="0.13" stroke-width="6"/><path d="M408.8 392.1h0M408.2 400.6h0M412.1 403.8h0M417.3 404.5h0M421.6 402.5h0M199.1 449.2h0M188.9 444.9h0M195.2 460.4h0M483.2 505.1h0M489.2 506.1h0M685.5 472.1h0M674.3 473.3h0M291.2 468.9h0M313.9 473.5h0M511.5 476.2h0M624.2 484.4h0M404 483.3h0M554.8 485.8h0M538.3 510.3h0M334.7 429.9h0M357.8 445.3h0M516.1 490h0M287.3 459.2h0M304.1 434.7h0M276.5 461.4h0M416.9 472.1h0M457.5 450.1h0M175.8 443.5h0M553.7 488.9h0M331.3 462.1h0M204.7 460.6h0M545.4 491.8h0M479 486.2h0M364.4 430.5h0M590.9 463.4h0M292.9 423.8h0M173.5 452.6h0M555.7 461.7h0M521.1 473.4h0M376.5 469.4h0M283.9 432.3h0M511.9 486.3h0M269.2 417h0M572.2 477h0M225.3 419.3h0M466.9 467.3h0M247.3 436.5h0M310.2 431.5h0M350 446.3h0M409.1 466.9h0M400.6 453.9h0M507.6 498.2h0M361.4 464.7h0M580.2 514.4h0M478.4 455h0M476.1 458.4h0M203.8 434.2h0M327.4 473.1h0M622.2 492.5h0M299.9 423.6h0M618 492.5h0M388.8 485.2h0M493.9 456.7h0M253.7 433.1h0M558.3 464.5h0M201.3 457.5h0M491.7 484.8h0M442.7 485.7h0M202.1 457.2h0M253.7 447.8h0M416.2 494.6h0M178.6 442.2h0M555.7 486.6h0M380 479.5h0M555.5 483.5h0M582.3 472h0M501.5 487.5h0M298.9 460.7h0M426.7 440.6h0M301 455.8h0M628.2 468.7h0M611.6 470.5h0M572.5 510.8h0M358.4 450.9h0M382.6 436.3h0M353.7 447.5h0M384.4 474h0M558.7 486.9h0M557 459h0M472.9 458.7h0M426.1 439.5h0M402.1 449.1h0M528.6 458.1h0M413.3 448h0M539 489.6h0M195.1 424.8h0M472.6 484.1h0M419.3 469.1h0M297.6 458.1h0M423.2 440.1h0M504.1 463.9h0M428.3 449.5h0M600.8 515.6h0M350 462.5h0M213.3 449.9h0M454.8 497.5h0M324.7 443.5h0M439.4 497.7h0M271.8 425.4h0M530.4 487.2h0M625.1 509.9h0M229.8 434.1h0M464.3 463.5h0M273.1 447.9h0M222.7 437.7h0M338.5 437.4h0M604.5 497.2h0M329.8 480h0M620.9 492.9h0M275.8 438h0M236.4 438.4h0M253.8 451.4h0M267.6 430.7h0M248.6 451.4h0M345 464.7h0M376.4 450h0M329.2 458.6h0M377.6 457.1h0M327 457.1h0M366.9 449.4h0M330.6 449.7h0M458.8 465.3h0M420.5 468.8h0M426.1 461.1h0M452.5 479.4h0M454.5 481.2h0M431 470.5h0M468.3 474.9h0M466.7 478.1h0M566.4 487.8h0M535.9 470.5h0M515.1 480.2h0M525.9 473.1h0M546.1 477.9h0M554.9 480.5h0M530.3 492.9h0M547.8 475.4h0M223.5 453.6h0M452.3 487.4h0M334 521.1h0M622.1 485.9h0M358 567h0M593.5 616.8h0M296.6 422.1h0M232.8 442.1h0M269.2 482.6h0M225.5 498h0M564.8 524.7h0M503.9 451.1h0M633.4 531h0M278.6 489.1h0M519.6 505.7h0M646 549.3h0M380.1 486.4h0M378.4 512.1h0M313.2 547.4h0M201.3 451h0M530.3 535.9h0M427.2 543.6h0M453.7 442.4h0M466.3 507.9h0M401.5 429h0M355.5 500.3h0M417 465.7h0M221.5 419h0M487.7 580.5h0M226.3 586.8h0M123.5 508.4h0M225.7 440.9h0M420 610.2h0M327.8 489.4h0M554.8 462.2h0M596.7 501.3h0M465.6 499.6h0M348.5 583.4h0M192.5 543.3h0M348.1 499.6h0M225 460.2h0M270 543.2h0M370.4 443.2h0M405.9 496.4h0M504 561.7h0M366.5 480.2h0M258.7 428h0M408.4 491.8h0M391.9 596.8h0M308.5 504.9h0M209.2 420.2h0M510 486.9h0M241.2 452.7h0M329.8 475.3h0M646.2 536.4h0M406.1 429.9h0M177.9 438.9h0M389 441.6h0M341.7 536.3h0M477.2 532.6h0M384.5 423.8h0M147.8 490h0M280.5 561.8h0M654.5 529.9h0M145.3 467.9h0M399.2 501.7h0M631.5 523.6h0M310.7 566.3h0M294.6 572h0M241.4 466.3h0M477.5 604.6h0M268.2 459.2h0M563.5 575.9h0M621.8 506.1h0M172.8 476.2h0M382.6 509.1h0M281.4 609.4h0M392 519.4h0M469.8 483.7h0M506.6 502.8h0M448.2 453.3h0M472.9 442.2h0M426.4 515.5h0M580.8 524.9h0M262.9 497.8h0M195.3 526.8h0M610.2 565.5h0M205.3 488.3h0M135.1 458.3h0M412.6 431.9h0M422.8 497.1h0M509.2 623.9h0M492 566.6h0M562.9 495.4h0M340.7 477.6h0M260.1 479.5h0M554.5 564.3h0M522.3 532.9h0M335.8 487.9h0M471.3 593.4h0M339.7 486.8h0M342.6 501.1h0M652.6 496.7h0M305.1 432.7h0M565.8 479.5h0M292.4 552.3h0M229.9 450.1h0M276.1 516.6h0M249.9 442.2h0M604.6 562.1h0M357.5 456.5h0M166.9 470.8h0M489.8 507.3h0M608.6 585.2h0M623.1 482.1h0M531.8 536.4h0M550.5 546.1h0M584.5 503.9h0M388.4 525.4h0M328.2 485.4h0M411 453.5h0M400.1 442.5h0M214 527.6h0M547.1 547.6h0M577.8 533.8h0M339.2 465.1h0M276.2 591.8h0M248.3 446.5h0M658.1 571.5h0M402.6 461.8h0M625.7 592.1h0M433.4 619h0M588.9 560.1h0M430.5 599.4h0M184.3 574h0M299.8 434.4h0M368.9 581.3h0M398.4 546.1h0M573.8 632.7h0M244 507.1h0M374.2 563.4h0M494.4 455.3h0M218.5 509.6h0M310.8 485.4h0M695.4 558.6h0M119.6 451.2h0M430.4 427h0M283.4 527.9h0M619.3 478.3h0M437.5 561h0M461.4 460.8h0M467.4 492.4h0M454.4 441.1h0M328.8 572.7h0M294.8 490.6h0M227 529.9h0M450.3 478.8h0M356.6 575.2h0M399.8 495.2h0M493 604.5h0M426.3 526.3h0M269.3 436.1h0M645.6 581.3h0M599 486h0M172.1 484.1h0M591 509h0M302.3 544.1h0M485.3 558h0M257.3 471h0M164.2 451.9h0M314.7 489.5h0M457.4 440h0M117.6 491.7h0M396.8 453.9h0M491.8 516.9h0M201.9 485.1h0M388.6 587.5h0M370.8 476h0M135.9 469.1h0M458.1 634.4h0M360.4 512.8h0M196.4 426.9h0M551.1 514.9h0M505 496h0M299.9 518.5h0M600.6 487.1h0M532.1 580.3h0M344.1 500.1h0M207.1 439.8h0M589.9 503.5h0M529.1 631.5h0M589.7 590.1h0M256.7 503.9h0M292.1 435.2h0M475.8 567.3h0M611.3 526.1h0M367.5 620.3h0M191.4 505.4h0M109 472h0M187.1 473.3h0M606.2 574h0M459.7 507h0M678.8 559.2h0M621.4 526.6h0M150.9 444.6h0M423.3 446.6h0M533 458.1h0M658.3 559.3h0M441.3 428.7h0M617.1 517.3h0M554.7 620h0M546.9 514.6h0M448.5 483h0M468.5 567.7h0M296.8 582.7h0M252.5 508.9h0M168.2 496.8h0M344.2 537.1h0M186.9 445.2h0M200.5 495.6h0M528.8 511.4h0" stroke="#ccdbe6" stroke-opacity="0.13" stroke-width="3"/><path d="M503.1 409.3h0" stroke="#c9455c" stroke-opacity="1.00" stroke-width="4"/><path d="M501.7 409.5h0M287.4 471.8h0" stroke="#c9455c" stroke-opacity="0.75" stroke-width="5"/><path d="M505.1 408.6h0" stroke="#c9455c" stroke-opacity="1.00" stroke-width="3"/><path d="M502.9 408.5h0M504 407.6h0M288.1 464.4h0M589.2 513h0M590.3 513.2h0" stroke="#c9455c" stroke-opacity="0.75" stroke-width="4"/><path d="M506.7 410h0" stroke="#c9455c" stroke-opacity="0.75" stroke-width="6"/><path d="M595.7 423.4h0" stroke="#2ea878" stroke-opacity="0.88" stroke-width="7"/><path d="M597.7 423.6h0M594.3 421.8h0M595.3 424.6h0M387.3 483.7h0M142.4 397.6h0M138.2 398.1h0" stroke="#2ea878" stroke-opacity="0.75" stroke-width="3"/><path d="M595.2 425.4h0M594.2 423.2h0M596.9 424.8h0M594.6 422.6h0M385.5 483.7h0M138.5 398.8h0" stroke="#2ea878" stroke-opacity="0.88" stroke-width="4"/><path d="M594.2 415.9h0M589.3 418h0M586.9 422h0M601.9 428.5h0" stroke="#2ea878" stroke-opacity="0.13" stroke-width="6"/><path d="M191.3 453.2h0M191.5 452.8h0M190.7 454.9h0M488 497.6h0M485.5 500.2h0M487.2 497.9h0M486 498.2h0M682.8 479.3h0M682.1 479.1h0M262.7 434.1h0M542.6 476.6h0" stroke="#ffffff" stroke-opacity="0.75" stroke-width="5"/><path d="M192.7 451.7h0M485 496.3h0" stroke="#ffffff" stroke-opacity="0.63" stroke-width="6"/><path d="M183.1 451.3h0M495.4 494.8h0M485 490.3h0M479.8 492.4h0M478.8 501.6h0M690.3 480.3h0M672.2 482.2h0M676.3 485.6h0M687.4 484.5h0M430.1 451.7h0M391.7 488.9h0M264.9 461.2h0M526.9 498.6h0M531 506.5h0M454.5 446.5h0M275.8 433.4h0M197.9 421.3h0M544.4 513.7h0M374 441.6h0M353.6 445.3h0M587 501.8h0M273.2 437.2h0M362.4 451.8h0M448.3 493.1h0M179.3 442.9h0M609.1 478.6h0M366.4 471.9h0M399.8 474h0M543.6 511.5h0M231.8 448.5h0M228.5 426.2h0M449.4 444.5h0M263.1 432h0M194.1 437.1h0M239 462.7h0M245.1 449.3h0M548.6 459h0M188.9 414.8h0M217.1 424.4h0M416.1 491.1h0M296.3 433.9h0M485.1 460.1h0M371.9 462.2h0M576.7 473.9h0M477.8 459.1h0M411.1 475.8h0M437.2 482.2h0M399 453.6h0M559.3 481.4h0M277.5 438.1h0M252.2 434.9h0M344.8 463.2h0M328.6 450h0M436.5 458.7h0M473.7 470.4h0M517.1 477.1h0M459.4 558.5h0M603.8 585.5h0M315.2 518.2h0M263.7 501.3h0M412.7 501.7h0M477.5 506.3h0M556.7 555.6h0M317.3 451.2h0M560.3 553.7h0M352.9 521.9h0M283.7 493.8h0M549.3 478.5h0M238.1 451.7h0M354 616.3h0M400.6 457.1h0M130.9 479.7h0M375.4 490.2h0M338.9 472.2h0M334.2 589.8h0M563.6 615.8h0M385.9 513.5h0M285.4 516.7h0M200.8 439.1h0M356.9 569.3h0M345.2 553.2h0M464.7 504.7h0M453.9 464.1h0M261.7 420.6h0M342.5 476.1h0M256.7 526.5h0M383.9 449.6h0M269.2 502.4h0M270.3 495.5h0M613.9 562.4h0M293.1 440.1h0M380.3 512.3h0M441.6 527.1h0M423.2 596.7h0M686.8 569.4h0M540.6 477.1h0M183.7 487.7h0M507.7 459.3h0M429.1 447.6h0M422.3 588.7h0M578 619.3h0M429.9 498.7h0M245 579h0M189.4 552.7h0M173.9 512h0M127 523h0M223.9 512h0M284.5 436.5h0M441.2 445.8h0M577.6 539.8h0M137.1 457.5h0M402 560.8h0M567.8 540.9h0M432.4 475.6h0M285.5 567.5h0M425.4 521.9h0M300.9 529.4h0M332.9 517h0M541.6 583.7h0M513.8 549.8h0M591 491.8h0M556.5 479h0M448.3 471.8h0" stroke="#ccdbe6" stroke-opacity="0.13" stroke-width="5"/><path d="M287.4 469.7h0M588 516.3h0" stroke="#c9455c" stroke-opacity="0.88" stroke-width="6"/><path d="M285.3 474.4h0M600 515.7h0M581.3 517.5h0" stroke="#c9455c" stroke-opacity="0.13" stroke-width="7"/><path d="M387.8 481.5h0M140.1 395.8h0" stroke="#2ea878" stroke-opacity="1.00" stroke-width="3"/><path d="M389.3 480.7h0" stroke="#2ea878" stroke-opacity="0.75" stroke-width="7"/><path d="M484.8 500.1h0M490.4 497.4h0M486 499.7h0M681.6 477h0M677 478.5h0M264.7 436.2h0M355.8 448.7h0" stroke="#ffffff" stroke-opacity="0.88" stroke-width="5"/><path d="M489.3 499.9h0" stroke="#ffffff" stroke-opacity="0.88" stroke-width="7"/><path d="M486.5 498h0M682.3 480.8h0M680.6 478.6h0" stroke="#ffffff" stroke-opacity="0.63" stroke-width="5"/><path d="M590.5 514.1h0" stroke="#c9455c" stroke-opacity="0.88" stroke-width="7"/><path d="M398.4 441h0M523.1 506.8h0M623.9 510.4h0M607.2 523.3h0M316.5 453.9h0M177.7 450.1h0M432.2 463.5h0M547 482h0M384.6 478.7h0M594.7 505.6h0M612.9 480.8h0M306.2 425.7h0M459.8 487.1h0M470.3 472.2h0M293.2 427.4h0M356.2 447.4h0M347.8 455.3h0M634.5 470.6h0M421.6 442.2h0M433.6 473h0M597.8 490.3h0M592.9 516.9h0M262.7 466.4h0M305.3 459.4h0M291.1 438.8h0M285.6 434.5h0M494.7 492.1h0M610.8 513.7h0M396.6 448.3h0M521.7 462.6h0M378.4 488.1h0M184.5 442.2h0M185.1 427.3h0M327.8 508.8h0M192.7 536.3h0M606.5 585.6h0M688.3 554.8h0M580.4 522.4h0M503 508.2h0M263.9 454.8h0M156.5 457.8h0M439.8 541.4h0M559.9 510.1h0M365 444.9h0M336.1 539.1h0M639.2 553.4h0M304.7 461h0M245.7 532.2h0M504.6 475.8h0M175.2 447.8h0M535.4 490h0M359.3 475.3h0M486.4 504.6h0M512.7 604.1h0M273.7 485.7h0M99.7 471.6h0M629.4 575.3h0M632.6 535.9h0M531.5 640.3h0M644.6 509.4h0M588.1 514.6h0M444.3 506.9h0M335.4 612.3h0M225.1 435.6h0M610 533.3h0M142.7 434.2h0M450.1 526.8h0M497.5 462.6h0M514.8 489.7h0M503 525.5h0M265.2 534.1h0M434.6 446.4h0M244.1 523.9h0M403.3 511.7h0" stroke="#6b7880" stroke-opacity="0.13" stroke-width="3"/><path d="M502.3 479.4h0M396 463.6h0M311.2 443.1h0M526.9 477h0M634.2 496.8h0M471.1 478.8h0M445.9 492.5h0M660.6 612.9h0M474 527.4h0M669.3 567.4h0M499.4 529.5h0M712.3 596.4h0" stroke="#ccdbe6" stroke-opacity="0.13" stroke-width="7"/><path d="M352.7 445.3h0M195.3 451.6h0M316.6 466.6h0M290.1 451.8h0M408.7 458.1h0M415.3 466.2h0M386.1 476.5h0M540.7 474.8h0M335 465.8h0M302.1 423.4h0M368.6 450h0M487.1 449.8h0M198.8 454.5h0M569.6 473.2h0M535.8 565.9h0M108.2 500h0M330.8 602.3h0M243.8 435.8h0M320.9 501.1h0M293.5 516.2h0M369.5 428.1h0M502.9 537h0M588 529.2h0M288.6 466.2h0M304.2 544.9h0M431.8 626.1h0" stroke="#6b7880" stroke-opacity="0.13" stroke-width="4"/><path d="M639.9 524h0M399.3 570.1h0" stroke="#6b7880" stroke-opacity="0.13" stroke-width="7"/><path d="M592.1 478.4h0M179.7 436h0M606.5 503.9h0M251.7 413.5h0M230.6 462.3h0M367.9 437.4h0M498.5 541.1h0M347.5 575.6h0M485.7 540.6h0M603.1 531.9h0M240.4 522.7h0" stroke="#6b7880" stroke-opacity="0.13" stroke-width="6"/><path d="M437.4 451.8h0M185.7 449.6h0M195.4 426.4h0M178.1 427.5h0M403.8 435.5h0M223.3 433.5h0M274.6 447h0M403.4 464.1h0M455.6 467.2h0M496.3 570.1h0M433.8 451.8h0M445.6 626.2h0M448.7 446.6h0M333.5 565.9h0M337.6 509.8h0M275.2 464.7h0M531.8 601.6h0M147.5 472.2h0M584.4 488.8h0M157.6 484.7h0M119 530.8h0M317.6 462.9h0M305.2 520.9h0" stroke="#6b7880" stroke-opacity="0.13" stroke-width="5"/><path d="M263.5 437.1h0M355.2 447.9h0M541.4 479.1h0" stroke="#ffffff" stroke-opacity="0.88" stroke-width="6"/><path d="M264.3 434.2h0M353.4 448.4h0M353.8 448h0M355.6 449.3h0M541.4 477.8h0" stroke="#ffffff" stroke-opacity="1.00" stroke-width="3"/><path d="M261.9 435.8h0" stroke="#ffffff" stroke-opacity="1.00" stroke-width="7"/><path d="M254.9 443.2h0M272.5 438.4h0M272.2 442.3h0M363 451.3h0M453.7 475h0M451.9 475h0M538.2 486.7h0" stroke="#ccdbe6" stroke-opacity="0.25" stroke-width="3"/><path d="M270.4 436.5h0M352.9 449.9h0M444.4 473.7h0" stroke="#ccdbe6" stroke-opacity="0.25" stroke-width="5"/><path d="M354.9 449h0M446.5 461.2h0M541.9 477.7h0" stroke="#ffffff" stroke-opacity="1.00" stroke-width="4"/><path d="M348.7 458.9h0" stroke="#ccdbe6" stroke-opacity="0.25" stroke-width="4"/><path d="M447.4 461.9h0M444.8 462.4h0" stroke="#ffffff" stroke-opacity="1.00" stroke-width="5"/><path d="M448.7 463.8h0M447 464.2h0" stroke="#ffffff" stroke-opacity="0.75" stroke-width="6"/><path d="M541.7 476.2h0" stroke="#ffffff" stroke-opacity="0.75" stroke-width="7"/><path d="M214.5 440h0M343.9 420.9h0M431.2 435.7h0M143.1 441h0" stroke="#ccdbe6" stroke-opacity="0.13" stroke-width="2"/><path d="M466.1 451.5h0" stroke="#6b7880" stroke-opacity="0.13" stroke-width="2"/></g></svg>
